# Blender 4.5.2 LTS
# www.blender.org
mtllib skydome.mtl
o Sphere
v 0.000000 0.382683 -0.923880
v 0.000000 0.000000 -1.000000
v 0.000000 -0.382683 -0.923880
v 0.000000 -0.923880 -0.382683
v 0.146447 0.923880 -0.353553
v 0.270598 0.707107 -0.653281
v 0.353553 0.382683 -0.853553
v 0.382683 0.000000 -0.923880
v 0.353553 -0.382683 -0.853553
v 0.270598 -0.707107 -0.653281
v 0.146447 -0.923880 -0.353553
v 0.270598 0.923880 -0.270598
v 0.500000 0.707107 -0.500000
v 0.653282 0.382683 -0.653281
v 0.707107 0.000000 -0.707107
v 0.653282 -0.382683 -0.653281
v 0.500000 -0.707107 -0.500000
v 0.270598 -0.923880 -0.270598
v 0.353553 0.923880 -0.146447
v 0.653281 0.707107 -0.270598
v 0.853553 0.382683 -0.353553
v 0.923880 0.000000 -0.382683
v 0.853553 -0.382683 -0.353553
v 0.653281 -0.707107 -0.270598
v 0.353553 -0.923880 -0.146447
v 0.382683 0.923880 0.000000
v 0.707107 0.707107 0.000000
v 0.923880 0.382683 0.000000
v 1.000000 0.000000 0.000000
v 0.923880 -0.382683 0.000000
v 0.707107 -0.707107 0.000000
v 0.382683 -0.923880 0.000000
v 0.353553 0.923880 0.146447
v 0.653281 0.707107 0.270598
v 0.853553 0.382683 0.353554
v 0.923879 0.000000 0.382684
v 0.853553 -0.382683 0.353554
v 0.653281 -0.707107 0.270598
v 0.353553 -0.923880 0.146447
v 0.270598 0.923880 0.270598
v 0.500000 0.707107 0.500000
v 0.653281 0.382683 0.653282
v 0.707107 0.000000 0.707107
v 0.653281 -0.382683 0.653282
v 0.500000 -0.707107 0.500000
v 0.270598 -0.923880 0.270598
v 0.146447 0.923880 0.353553
v 0.270598 0.707107 0.653281
v 0.353553 0.382683 0.853553
v 0.382683 0.000000 0.923880
v 0.353553 -0.382683 0.853553
v 0.270598 -0.707107 0.653281
v 0.146447 -0.923880 0.353553
v -0.000000 0.923880 0.382683
v -0.000000 0.707107 0.707107
v -0.000000 0.382683 0.923879
v -0.000000 0.000000 1.000000
v -0.000000 -0.382683 0.923879
v -0.000000 -0.707107 0.707107
v -0.000000 -0.923880 0.382683
v 0.000000 -1.000000 0.000000
v 0.000000 1.000000 0.000000
v -0.146447 0.923880 0.353553
v -0.270598 0.707107 0.653281
v -0.353554 0.382683 0.853553
v -0.382684 0.000000 0.923879
v -0.353554 -0.382683 0.853553
v -0.270598 -0.707107 0.653281
v -0.146447 -0.923880 0.353553
v -0.270598 0.923880 0.270598
v -0.500000 0.707107 0.500000
v -0.653282 0.382683 0.653281
v -0.707107 0.000000 0.707106
v -0.653282 -0.382683 0.653281
v -0.500000 -0.707107 0.500000
v -0.270598 -0.923880 0.270598
v -0.353553 0.923880 0.146446
v -0.653281 0.707107 0.270598
v -0.853553 0.382683 0.353553
v -0.923880 0.000000 0.382683
v -0.853553 -0.382683 0.353553
v -0.653281 -0.707107 0.270598
v -0.353553 -0.923880 0.146446
v -0.382683 0.923880 -0.000000
v -0.707107 0.707107 -0.000000
v -0.923879 0.382683 -0.000000
v -1.000000 0.000000 -0.000001
v -0.923879 -0.382683 -0.000000
v -0.707107 -0.707107 -0.000000
v -0.382683 -0.923880 -0.000000
v -0.353553 0.923880 -0.146447
v -0.653281 0.707107 -0.270598
v -0.853553 0.382683 -0.353554
v -0.923879 0.000000 -0.382684
v -0.853553 -0.382683 -0.353554
v -0.653281 -0.707107 -0.270598
v -0.353553 -0.923880 -0.146447
v -0.270598 0.923880 -0.270598
v -0.500000 0.707107 -0.500000
v -0.653281 0.382683 -0.653282
v -0.707106 0.000000 -0.707107
v -0.653281 -0.382683 -0.653282
v -0.500000 -0.707107 -0.500000
v -0.270598 -0.923880 -0.270598
v -0.146446 0.923880 -0.353554
v -0.270598 0.707107 -0.653281
v -0.353553 0.382683 -0.853553
v -0.382683 0.000000 -0.923880
v -0.353553 -0.382683 -0.853553
v -0.270598 -0.707107 -0.653281
v -0.146446 -0.923880 -0.353554
v 0.000000 0.923880 -0.382683
v 0.000000 0.707107 -0.707107
v 0.000000 -0.707107 -0.707107
vn -0.0000 -0.3744 0.9273
vn -0.0000 -0.0000 1.0000
vn -0.0000 0.3744 0.9273
vn -0.0000 0.9152 0.4031
vn -0.1543 -0.9152 0.3724
vn -0.2751 -0.6952 0.6641
vn -0.3549 -0.3744 0.8567
vn -0.3827 -0.0000 0.9239
vn -0.3549 0.3744 0.8567
vn -0.2751 0.6952 0.6641
vn -0.1543 0.9152 0.3724
vn -0.2850 -0.9152 0.2850
vn -0.5083 -0.6952 0.5083
vn -0.6557 -0.3744 0.6557
vn -0.7071 -0.0000 0.7071
vn -0.6557 0.3744 0.6557
vn -0.5083 0.6952 0.5083
vn -0.2850 0.9152 0.2850
vn -0.3724 -0.9152 0.1543
vn -0.6641 -0.6952 0.2751
vn -0.8567 -0.3744 0.3549
vn -0.9239 -0.0000 0.3827
vn -0.8567 0.3744 0.3549
vn -0.6641 0.6952 0.2751
vn -0.3724 0.9152 0.1543
vn -0.4031 -0.9152 -0.0000
vn -0.7189 -0.6952 -0.0000
vn -0.9273 -0.3744 -0.0000
vn -1.0000 -0.0000 -0.0000
vn -0.9273 0.3744 -0.0000
vn -0.7189 0.6952 -0.0000
vn -0.4031 0.9152 -0.0000
vn -0.3724 -0.9152 -0.1543
vn -0.6641 -0.6952 -0.2751
vn -0.8567 -0.3744 -0.3549
vn -0.9239 -0.0000 -0.3827
vn -0.8567 0.3744 -0.3549
vn -0.6641 0.6952 -0.2751
vn -0.3724 0.9152 -0.1543
vn -0.2850 -0.9152 -0.2850
vn -0.5083 -0.6952 -0.5083
vn -0.6557 -0.3744 -0.6557
vn -0.7071 -0.0000 -0.7071
vn -0.6557 0.3744 -0.6557
vn -0.5083 0.6952 -0.5083
vn -0.2850 0.9152 -0.2850
vn -0.1543 -0.9152 -0.3724
vn -0.2751 -0.6952 -0.6641
vn -0.3549 -0.3744 -0.8567
vn -0.3827 -0.0000 -0.9239
vn -0.3549 0.3744 -0.8567
vn -0.2751 0.6952 -0.6641
vn -0.1543 0.9152 -0.3724
vn -0.0000 -0.9152 -0.4031
vn -0.0000 -0.6952 -0.7189
vn -0.0000 -0.3744 -0.9273
vn -0.0000 -0.0000 -1.0000
vn -0.0000 0.3744 -0.9273
vn -0.0000 0.6952 -0.7189
vn -0.0000 0.9152 -0.4031
vn -0.0000 1.0000 -0.0000
vn -0.0000 -1.0000 -0.0000
vn 0.1543 -0.9152 -0.3724
vn 0.2751 -0.6952 -0.6641
vn 0.3549 -0.3744 -0.8567
vn 0.3827 -0.0000 -0.9239
vn 0.3549 0.3744 -0.8567
vn 0.2751 0.6952 -0.6641
vn 0.1543 0.9152 -0.3724
vn 0.2850 -0.9152 -0.2850
vn 0.5083 -0.6952 -0.5083
vn 0.6557 -0.3744 -0.6557
vn 0.7071 -0.0000 -0.7071
vn 0.6557 0.3744 -0.6557
vn 0.5083 0.6952 -0.5083
vn 0.2850 0.9152 -0.2850
vn 0.3724 -0.9152 -0.1543
vn 0.6641 -0.6952 -0.2751
vn 0.8567 -0.3744 -0.3549
vn 0.9239 -0.0000 -0.3827
vn 0.8567 0.3744 -0.3549
vn 0.6641 0.6952 -0.2751
vn 0.3724 0.9152 -0.1543
vn 0.4031 -0.9152 -0.0000
vn 0.7189 -0.6952 -0.0000
vn 0.9273 -0.3744 -0.0000
vn 1.0000 -0.0000 -0.0000
vn 0.9273 0.3744 -0.0000
vn 0.7189 0.6952 -0.0000
vn 0.4031 0.9152 -0.0000
vn 0.3724 -0.9152 0.1543
vn 0.6641 -0.6952 0.2751
vn 0.8567 -0.3744 0.3549
vn 0.9239 -0.0000 0.3827
vn 0.8567 0.3744 0.3549
vn 0.6641 0.6952 0.2751
vn 0.3724 0.9152 0.1543
vn 0.2850 -0.9152 0.2850
vn 0.5083 -0.6952 0.5083
vn 0.6557 -0.3744 0.6557
vn 0.7071 -0.0000 0.7071
vn 0.6557 0.3744 0.6557
vn 0.5083 0.6952 0.5083
vn 0.2850 0.9152 0.2850
vn 0.1543 -0.9152 0.3724
vn 0.2751 -0.6952 0.6641
vn 0.3549 -0.3744 0.8567
vn 0.3827 -0.0000 0.9239
vn 0.3549 0.3744 0.8567
vn 0.2751 0.6952 0.6641
vn 0.1543 0.9152 0.3724
vn -0.0000 -0.9152 0.4031
vn -0.0000 -0.6952 0.7189
vn -0.0000 0.6952 0.7189
vt 0.750000 0.500000
vt 0.687500 0.500000
vt 0.687500 0.625000
vt 0.750000 0.625000
vt 0.750000 0.750000
vt 0.687500 0.750000
vt 0.687500 0.875000
vt 0.750000 0.875000
vt 0.750000 0.125000
vt 0.687500 0.125000
vt 0.687500 0.250000
vt 0.750000 0.250000
vt 0.750000 0.375000
vt 0.687500 0.375000
vt 0.718750 1.000000
vt 0.718750 0.000000
vt 0.625000 0.125000
vt 0.625000 0.250000
vt 0.625000 0.375000
vt 0.625000 0.500000
vt 0.625000 0.625000
vt 0.625000 0.750000
vt 0.625000 0.875000
vt 0.656250 1.000000
vt 0.656250 0.000000
vt 0.562500 0.875000
vt 0.593750 1.000000
vt 0.593750 0.000000
vt 0.562500 0.125000
vt 0.562500 0.250000
vt 0.562500 0.375000
vt 0.562500 0.500000
vt 0.562500 0.625000
vt 0.562500 0.750000
vt 0.500000 0.250000
vt 0.500000 0.375000
vt 0.500000 0.500000
vt 0.500000 0.625000
vt 0.500000 0.750000
vt 0.500000 0.875000
vt 0.500000 0.125000
vt 0.531250 1.000000
vt 0.531250 0.000000
vt 0.437500 0.125000
vt 0.437500 0.250000
vt 0.437500 0.375000
vt 0.437500 0.500000
vt 0.437500 0.625000
vt 0.437500 0.750000
vt 0.437500 0.875000
vt 0.468750 1.000000
vt 0.468750 0.000000
vt 0.375000 0.375000
vt 0.375000 0.500000
vt 0.375000 0.625000
vt 0.375000 0.750000
vt 0.375000 0.875000
vt 0.406250 1.000000
vt 0.406250 0.000000
vt 0.375000 0.125000
vt 0.375000 0.250000
vt 0.343750 0.000000
vt 0.312500 0.125000
vt 0.312500 0.250000
vt 0.312500 0.375000
vt 0.312500 0.500000
vt 0.312500 0.625000
vt 0.312500 0.750000
vt 0.312500 0.875000
vt 0.343750 1.000000
vt 0.250000 0.500000
vt 0.250000 0.625000
vt 0.250000 0.750000
vt 0.250000 0.875000
vt 0.250000 0.125000
vt 0.250000 0.250000
vt 0.250000 0.375000
vt 0.281250 1.000000
vt 0.281250 0.000000
vt 0.187500 0.125000
vt 0.187500 0.250000
vt 0.187500 0.375000
vt 0.187500 0.500000
vt 0.187500 0.625000
vt 0.187500 0.750000
vt 0.187500 0.875000
vt 0.218750 1.000000
vt 0.218750 0.000000
vt 0.125000 0.625000
vt 0.125000 0.750000
vt 0.125000 0.875000
vt 0.156250 1.000000
vt 0.156250 0.000000
vt 0.125000 0.125000
vt 0.125000 0.250000
vt 0.125000 0.375000
vt 0.125000 0.500000
vt 0.093750 0.000000
vt 0.062500 0.125000
vt 0.062500 0.250000
vt 0.062500 0.375000
vt 0.062500 0.500000
vt 0.062500 0.625000
vt 0.062500 0.750000
vt 0.062500 0.875000
vt 0.093750 1.000000
vt 0.000000 0.750000
vt 0.000000 0.875000
vt 0.000000 0.125000
vt 0.000000 0.250000
vt 0.000000 0.375000
vt 0.000000 0.500000
vt 0.000000 0.625000
vt 0.031250 1.000000
vt 0.031250 0.000000
vt 1.000000 0.125000
vt 0.937500 0.125000
vt 0.937500 0.250000
vt 1.000000 0.250000
vt 1.000000 0.375000
vt 0.937500 0.375000
vt 0.937500 0.500000
vt 1.000000 0.500000
vt 1.000000 0.625000
vt 0.937500 0.625000
vt 0.937500 0.750000
vt 1.000000 0.750000
vt 1.000000 0.875000
vt 0.937500 0.875000
vt 0.968750 1.000000
vt 0.968750 0.000000
vt 0.875000 0.875000
vt 0.906250 1.000000
vt 0.906250 0.000000
vt 0.875000 0.125000
vt 0.875000 0.250000
vt 0.875000 0.375000
vt 0.875000 0.500000
vt 0.875000 0.625000
vt 0.875000 0.750000
vt 0.812500 0.250000
vt 0.812500 0.375000
vt 0.812500 0.500000
vt 0.812500 0.625000
vt 0.812500 0.750000
vt 0.812500 0.875000
vt 0.812500 0.125000
vt 0.843750 1.000000
vt 0.843750 0.000000
vt 0.781250 1.000000
vt 0.781250 0.000000
s 1
usemtl base
f 2/1/2 8/2/8 7/3/7 1/4/1
f 113/5/113 6/6/6 5/7/5 112/8/112
f 4/9/4 11/10/11 10/11/10 114/12/114
f 3/13/3 9/14/9 8/2/8 2/1/2
f 1/4/1 7/3/7 6/6/6 113/5/113
f 112/8/112 5/7/5 62/15/62
f 61/16/61 11/10/11 4/9/4
f 114/12/114 10/11/10 9/14/9 3/13/3
f 11/10/11 18/17/18 17/18/17 10/11/10
f 9/14/9 16/19/16 15/20/15 8/2/8
f 7/3/7 14/21/14 13/22/13 6/6/6
f 5/7/5 12/23/12 62/24/62
f 61/25/61 18/17/18 11/10/11
f 10/11/10 17/18/17 16/19/16 9/14/9
f 8/2/8 15/20/15 14/21/14 7/3/7
f 6/6/6 13/22/13 12/23/12 5/7/5
f 12/23/12 19/26/19 62/27/62
f 61/28/61 25/29/25 18/17/18
f 17/18/17 24/30/24 23/31/23 16/19/16
f 15/20/15 22/32/22 21/33/21 14/21/14
f 13/22/13 20/34/20 19/26/19 12/23/12
f 18/17/18 25/29/25 24/30/24 17/18/17
f 16/19/16 23/31/23 22/32/22 15/20/15
f 14/21/14 21/33/21 20/34/20 13/22/13
f 24/30/24 31/35/31 30/36/30 23/31/23
f 22/32/22 29/37/29 28/38/28 21/33/21
f 20/34/20 27/39/27 26/40/26 19/26/19
f 25/29/25 32/41/32 31/35/31 24/30/24
f 23/31/23 30/36/30 29/37/29 22/32/22
f 21/33/21 28/38/28 27/39/27 20/34/20
f 19/26/19 26/40/26 62/42/62
f 61/43/61 32/41/32 25/29/25
f 32/41/32 39/44/39 38/45/38 31/35/31
f 30/36/30 37/46/37 36/47/36 29/37/29
f 28/38/28 35/48/35 34/49/34 27/39/27
f 26/40/26 33/50/33 62/51/62
f 61/52/61 39/44/39 32/41/32
f 31/35/31 38/45/38 37/46/37 30/36/30
f 29/37/29 36/47/36 35/48/35 28/38/28
f 27/39/27 34/49/34 33/50/33 26/40/26
f 37/46/37 44/53/44 43/54/43 36/47/36
f 35/48/35 42/55/42 41/56/41 34/49/34
f 33/50/33 40/57/40 62/58/62
f 61/59/61 46/60/46 39/44/39
f 38/45/38 45/61/45 44/53/44 37/46/37
f 36/47/36 43/54/43 42/55/42 35/48/35
f 34/49/34 41/56/41 40/57/40 33/50/33
f 39/44/39 46/60/46 45/61/45 38/45/38
f 61/62/61 53/63/53 46/60/46
f 45/61/45 52/64/52 51/65/51 44/53/44
f 43/54/43 50/66/50 49/67/49 42/55/42
f 41/56/41 48/68/48 47/69/47 40/57/40
f 46/60/46 53/63/53 52/64/52 45/61/45
f 44/53/44 51/65/51 50/66/50 43/54/43
f 42/55/42 49/67/49 48/68/48 41/56/41
f 40/57/40 47/69/47 62/70/62
f 50/66/50 57/71/57 56/72/56 49/67/49
f 48/68/48 55/73/55 54/74/54 47/69/47
f 53/63/53 60/75/60 59/76/59 52/64/52
f 51/65/51 58/77/58 57/71/57 50/66/50
f 49/67/49 56/72/56 55/73/55 48/68/48
f 47/69/47 54/74/54 62/78/62
f 61/79/61 60/75/60 53/63/53
f 52/64/52 59/76/59 58/77/58 51/65/51
f 60/75/60 69/80/69 68/81/68 59/76/59
f 58/77/58 67/82/67 66/83/66 57/71/57
f 56/72/56 65/84/65 64/85/64 55/73/55
f 54/74/54 63/86/63 62/87/62
f 61/88/61 69/80/69 60/75/60
f 59/76/59 68/81/68 67/82/67 58/77/58
f 57/71/57 66/83/66 65/84/65 56/72/56
f 55/73/55 64/85/64 63/86/63 54/74/54
f 65/84/65 72/89/72 71/90/71 64/85/64
f 63/86/63 70/91/70 62/92/62
f 61/93/61 76/94/76 69/80/69
f 68/81/68 75/95/75 74/96/74 67/82/67
f 66/83/66 73/97/73 72/89/72 65/84/65
f 64/85/64 71/90/71 70/91/70 63/86/63
f 69/80/69 76/94/76 75/95/75 68/81/68
f 67/82/67 74/96/74 73/97/73 66/83/66
f 61/98/61 83/99/83 76/94/76
f 75/95/75 82/100/82 81/101/81 74/96/74
f 73/97/73 80/102/80 79/103/79 72/89/72
f 71/90/71 78/104/78 77/105/77 70/91/70
f 76/94/76 83/99/83 82/100/82 75/95/75
f 74/96/74 81/101/81 80/102/80 73/97/73
f 72/89/72 79/103/79 78/104/78 71/90/71
f 70/91/70 77/105/77 62/106/62
f 78/104/78 85/107/85 84/108/84 77/105/77
f 83/99/83 90/109/90 89/110/89 82/100/82
f 81/101/81 88/111/88 87/112/87 80/102/80
f 79/103/79 86/113/86 85/107/85 78/104/78
f 77/105/77 84/108/84 62/114/62
f 61/115/61 90/109/90 83/99/83
f 82/100/82 89/110/89 88/111/88 81/101/81
f 80/102/80 87/112/87 86/113/86 79/103/79
f 90/116/90 97/117/97 96/118/96 89/119/89
f 88/120/88 95/121/95 94/122/94 87/123/87
f 86/124/86 93/125/93 92/126/92 85/127/85
f 84/128/84 91/129/91 62/130/62
f 61/131/61 97/117/97 90/116/90
f 89/119/89 96/118/96 95/121/95 88/120/88
f 87/123/87 94/122/94 93/125/93 86/124/86
f 85/127/85 92/126/92 91/129/91 84/128/84
f 91/129/91 98/132/98 62/133/62
f 61/134/61 104/135/104 97/117/97
f 96/118/96 103/136/103 102/137/102 95/121/95
f 94/122/94 101/138/101 100/139/100 93/125/93
f 92/126/92 99/140/99 98/132/98 91/129/91
f 97/117/97 104/135/104 103/136/103 96/118/96
f 95/121/95 102/137/102 101/138/101 94/122/94
f 93/125/93 100/139/100 99/140/99 92/126/92
f 103/136/103 110/141/110 109/142/109 102/137/102
f 101/138/101 108/143/108 107/144/107 100/139/100
f 99/140/99 106/145/106 105/146/105 98/132/98
f 104/135/104 111/147/111 110/141/110 103/136/103
f 102/137/102 109/142/109 108/143/108 101/138/101
f 100/139/100 107/144/107 106/145/106 99/140/99
f 98/132/98 105/146/105 62/148/62
f 61/149/61 111/147/111 104/135/104
f 111/147/111 4/9/4 114/12/114 110/141/110
f 109/142/109 3/13/3 2/1/2 108/143/108
f 107/144/107 1/4/1 113/5/113 106/145/106
f 105/146/105 112/8/112 62/150/62
f 61/151/61 4/9/4 111/147/111
f 110/141/110 114/12/114 3/13/3 109/142/109
f 108/143/108 2/1/2 1/4/1 107/144/107
f 106/145/106 113/5/113 112/8/112 105/146/105
